inDegrees=no
num_controls=7
num_derivatives=13
num_iterations=200
num_multipliers=7
num_parameters=0
num_slacks=7
num_states=26
objective=4.677654
objective_accelerations=0.614594
objective_balance=0.100754
objective_effort=0.471574
objective_height=3.448732
objective_ligament=0.042000
solver_duration=2201.845442
status=Solve_Succeeded
success=true
DataType=double
version=3
OpenSimVersion=4.4-2022-07-23-0e9fedc
endheader
time	/jointset/ground_pelvis/pelvis_tilt/value	/jointset/ground_pelvis/pelvis_tx/value	/jointset/ground_pelvis/pelvis_ty/value	/jointset/hip_l/hip_flexion_l/value	/jointset/hip_l/hip_adduction_l/value	/jointset/hip_l/hip_rotation_l/value	/jointset/back/lumbar_extension/value	/jointset/patellofemoral_l/patellar_flexion_l/value	/jointset/knee_l/knee_flexion_l/value	/jointset/knee_l/knee_adduction_l/value	/jointset/knee_l/knee_rotation_l/value	/jointset/ankle_l/ankle_angle_l/value	/jointset/subtalar_l/subtalar_angle_l/value	/jointset/ground_pelvis/pelvis_tilt/speed	/jointset/ground_pelvis/pelvis_tx/speed	/jointset/ground_pelvis/pelvis_ty/speed	/jointset/hip_l/hip_flexion_l/speed	/jointset/hip_l/hip_adduction_l/speed	/jointset/hip_l/hip_rotation_l/speed	/jointset/back/lumbar_extension/speed	/jointset/patellofemoral_l/patellar_flexion_l/speed	/jointset/knee_l/knee_flexion_l/speed	/jointset/knee_l/knee_adduction_l/speed	/jointset/knee_l/knee_rotation_l/speed	/jointset/ankle_l/ankle_angle_l/speed	/jointset/subtalar_l/subtalar_angle_l/speed	/forceset/tau_hip_flexion_l	/forceset/tau_hip_adduction_l	/forceset/tau_hip_rotation_l	/forceset/tau_knee_flexion_l	/forceset/tau_ankle_angle_l	/forceset/tau_subtalar_angle_l	/forceset/tau_lumbar_extension	lambda_cid13_p0	lambda_cid13_p1	lambda_cid13_p2	lambda_cid13_p3	lambda_cid13_p4	lambda_cid13_p5	lambda_cid14_p0	/jointset/ground_pelvis/pelvis_tilt/accel	/jointset/ground_pelvis/pelvis_tx/accel	/jointset/ground_pelvis/pelvis_ty/accel	/jointset/hip_l/hip_flexion_l/accel	/jointset/hip_l/hip_adduction_l/accel	/jointset/hip_l/hip_rotation_l/accel	/jointset/back/lumbar_extension/accel	/jointset/patellofemoral_l/patellar_flexion_l/accel	/jointset/knee_l/knee_flexion_l/accel	/jointset/knee_l/knee_adduction_l/accel	/jointset/knee_l/knee_rotation_l/accel	/jointset/ankle_l/ankle_angle_l/accel	/jointset/subtalar_l/subtalar_angle_l/accel	gamma_cid13_p0	gamma_cid13_p1	gamma_cid13_p2	gamma_cid13_p3	gamma_cid13_p4	gamma_cid13_p5	gamma_cid14_p0
0	-0.1589037963619669	0.05810525025038131	0.8979568272258269	0.3774920279260975	-0.2597456089678285	-0.2625635492007542	-0.0126506700172305	0.03223623128432491	0.03223623128433527	-0.1745315146953225	0.164597126019749	-0.04231376238535053	-0.009991058599380934	0	0	0	0	0	0	0	0	0	0	0	0	0	0.1548753444254461	-0.0854112735369295	-0.05144959745967768	-0.3186264207639209	0.3445490635118542	-0.04564500847877308	-0.09779452553699187	69.55892534034507	2.212039205101211	5.449942166682532	-23.12919631519935	-579.3729186710024	-73.02989090153402	-38.76705527383264	-3.041568182248659	-1.927815506415609	-1.170798998937463	14.91918599679028	-0.5244721265620238	4.788693603225493	-6.954400985063979	15.66954238249443	15.66954238249778	3.145641383747392	0.5722318835019081	4.838482115230287	0.5280051316369211	-3.120182951533807e-08	6.260067427571099e-07	4.339886304903608e-08	4.040932675462244e-08	1.686819088109977e-07	5.919408665893546e-08	5.585497984871004e-08
0.01	-0.1590486053450768	0.05801005055760736	0.8978997965711586	0.3782198263382531	-0.2597707480223331	-0.2623223403046431	-0.01299935762594313	0.03300350885690941	0.03300350885681918	-0.1743756446389308	0.1646186282294679	-0.04207694984075556	-0.009964786695870758	-0.02878160176978656	-0.01895485985687378	-0.011370542627498	0.1448495483422902	-0.004939597347516419	0.04793481293389756	-0.06926563440781254	0.1527419189628525	0.1527419189628276	0.03110825916321947	0.004325640025602603	0.04714621729902683	0.005292573243312799	0.147842749489415	-0.09292018745043583	-0.04994664057181654	-0.309945643610091	0.3304534765142473	-0.03251568357846182	-0.09213900284235117	65.46731455804715	-2.551563698687486	5.95575029101208	-20.9752748796252	-580.8207540576669	-81.98482608939416	-38.78908270757347	-2.769438776462878	-1.866551338354884	-1.114809912323363	14.16130975040371	-0.4655878843061633	4.749850180713134	-6.841861569212934	14.96946615261391	14.96946615260849	3.083669120701719	0.3665432290388256	4.620254107119485	0.5355092520520714	-5.705855547555754e-08	7.636341038311432e-07	8.396523280487987e-08	9.680308634899371e-08	-7.357658490751726e-08	9.086209746855861e-08	7.094823700702825e-08
0.02	-0.1594758268662684	0.05772785624365986	0.897730134886684	0.3803748143333414	-0.2598426599193819	-0.2616109882706409	-0.01402654495881869	0.03527679551876457	0.03527679551876554	-0.1739106418032005	0.1646841494730135	-0.04137516260918293	-0.009884463893652325	-0.05648250762419846	-0.03739892423470721	-0.02252620596131895	0.2854379165829752	-0.009354568513290171	0.0940286275574137	-0.1356999448385685	0.3012018179030096	0.3012018179029431	0.0618265558500863	0.008803806729146263	0.09299493739326956	0.01081017974155281	0.1408101545527538	-0.1004291013644259	-0.0484436836827493	-0.3012648664573883	0.3163578895160751	-0.01938635867876802	-0.08648348014758883	61.51262304695367	-7.328863940774281	6.452012732485603	-19.12777188998521	-580.2572901299068	-90.70904693126919	-38.85402220953738	-2.825428999173879	-1.825656410607387	-1.127823140202041	14.06694997646925	-0.4195468902133685	4.420493941149216	-6.388136189652795	14.81313837795532	14.81313837795531	3.067648888477116	0.6027372190901025	4.578982674273668	0.5730117826225386	-8.291528143577702e-08	9.012614649051765e-07	1.245316025607237e-07	1.53196845943365e-07	-3.158350786260323e-07	1.225301082781817e-07	8.604149416534646e-08
0.03	-0.1601750976404628	0.05726419378848688	0.8974494600842975	0.3839145556786628	-0.2599562933062636	-0.2604488295209764	-0.01570289932314245	0.0390137441810865	0.0390137441810358	-0.173141515997432	0.1647957562952302	-0.0402209057718407	-0.009747960320418376	-0.08318789041748981	-0.05520442357197194	-0.0336155884359653	0.4217362419871481	-0.01331451342340232	0.1381270616796258	-0.1990474422544494	0.4454603909341477	0.4454603909341323	0.09180906290475124	0.01346468780851843	0.1376712024523067	0.01650146155270768	0.1337399877600363	-0.09359896139160159	-0.04720490755113683	-0.2944234192924028	0.30841390860687	-0.02130309917992283	-0.08067107735826078	58.94325101621039	-6.162142865192162	6.398042831829479	-18.10035949260373	-579.7352138533695	-87.0996369494617	-38.95927835338895	-2.565530407832817	-1.738594343527287	-1.100585034900218	13.29514858353505	-0.3757319554659655	4.363123740690702	-6.22953365184082	14.12307095274596	14.12307095275366	2.935283442622209	0.3898666728575188	4.384175666126235	0.5686699064198778	-1.065569883542003e-07	8.359876707083777e-07	2.154574411461821e-07	1.848248533687171e-07	-5.050408082283495e-07	5.832630539256522e-08	7.423432750887381e-08
0.04	-0.1611359097402625	0.05662635681029286	0.8970576736104053	0.3887940552302231	-0.2601078288750659	-0.2588539653115189	-0.01799702408849386	0.04417144941109456	0.04417144941109531	-0.1720782187555165	0.164952392552431	-0.03862544083502735	-0.009554247223861383	-0.1087907727479289	-0.0722338288389158	-0.04474854026249377	0.5533895578370162	-0.01693500489577906	0.1805697195191806	-0.2592540250417538	0.5853531314474099	0.5853531314474525	0.120660843105893	0.01780969370775318	0.1812365572876565	0.02225208440619319	0.1266698209671172	-0.08676882141865511	-0.04596613141909801	-0.287581972127339	0.3004699276977912	-0.02321983968093563	-0.0748586745692803	56.49667203661838	-5.00274281077432	6.329050262614949	-17.35579824070618	-577.4223002400953	-83.27025772709833	-39.10145158203687	-2.604928906603619	-1.67043759654309	-1.136537010578449	13.13794806560823	-0.3516562026661349	4.089338684617782	-5.759953263937639	13.93997187438008	13.93997187438148	2.841503517772738	0.5395621830625748	4.356800629536382	0.5848799910888369	-1.301530247769165e-07	7.665303475369225e-07	3.074216192951379e-07	2.159422267287285e-07	-6.931526664055905e-07	-7.854235919757281e-09	6.187251293869413e-08
0.05	-0.1623480775340687	0.05582184345830968	0.8965538146121088	0.3949687175540856	-0.2602936556334625	-0.256844637836433	-0.02087759359564682	0.05070737880500677	0.05070737880495518	-0.1707321055477728	0.165152431063064	-0.03659994769278904	-0.009302548673022108	-0.1334787018255572	-0.0885620709814233	-0.05606849895755014	0.6808330106587157	-0.0201439285644996	0.2209945711018496	-0.316410832684525	0.7211098452480238	0.7211098452480772	0.1483831915134937	0.02212970450426259	0.223641116215242	0.02811636518026034	0.1195511831413738	-0.08368795102589663	-0.04460744797780859	-0.2811296615592855	0.2910977054674139	-0.02082756124695766	-0.06917462942879569	53.74176638225449	-5.548931213461979	6.404229895539453	-16.15960207045817	-575.2131213597029	-82.87418113339957	-39.27629139025707	-2.37610494497447	-1.597958496436525	-1.136651383668241	12.44105160442878	-0.2926956263298076	3.973855876449304	-5.626187959271451	13.28507354560383	13.28507354560329	2.710970503978595	0.3679687425741098	4.149151250500129	0.5913583357348903	-1.382448778189583e-07	5.86562956984343e-07	3.611545898973318e-07	2.206029905640816e-07	-7.916600360589152e-07	-7.855786464529838e-08	4.072083908371218e-08
